HIERARCHY
ROOT Hips
{
	OFFSET 0.000000 97.167313 0.000000
	CHANNELS 6 Xposition Yposition Zposition Xrotation Yrotation Zrotation
	JOINT Spine
	{
		OFFSET 0.000000 13.784798 0.064400
		CHANNELS 3 Xrotation Yrotation Zrotation
		JOINT Spine1
		{
			OFFSET 0.000000 12.037903 0.404700
			CHANNELS 3 Xrotation Yrotation Zrotation
			JOINT Spine2
			{
				OFFSET 0.000000 17.795601 0.420200
				CHANNELS 3 Xrotation Yrotation Zrotation
				JOINT Neck
				{
					OFFSET 0.000000 39.131302 11.954600
					CHANNELS 3 Xrotation Yrotation Zrotation
					JOINT Head
					{
						OFFSET 0.000000 14.456192 15.627699
						CHANNELS 3 Xrotation Yrotation Zrotation
						JOINT HeadTop_End
						{
							OFFSET 0.000000 15.703506 7.603401
							CHANNELS 3 Xrotation Yrotation Zrotation
							End Site
							{
								OFFSET 0.000000 17.447403 0.000000
							}
						}
					}
				}
				JOINT LeftShoulder
				{
					OFFSET 17.399500 24.608795 1.168800
					CHANNELS 3 Xrotation Yrotation Zrotation
					JOINT LeftArm
					{
						OFFSET 18.980635 5.765305 1.818600
						CHANNELS 3 Xrotation Yrotation Zrotation
						JOINT LeftForeArm
						{
							OFFSET 49.290169 0.000000 0.000000
							CHANNELS 3 Xrotation Yrotation Zrotation
							JOINT LeftHand
							{
								OFFSET 31.562012 0.000000 0.000000
								CHANNELS 3 Xrotation Yrotation Zrotation
								JOINT LeftHandThumb1
								{
									OFFSET 6.133995 -4.388519 7.076070
									CHANNELS 3 Xrotation Yrotation Zrotation
									JOINT LeftHandThumb2
									{
										OFFSET 6.037666 -3.485840 3.485847
										CHANNELS 3 Xrotation Yrotation Zrotation
										JOINT LeftHandThumb3
										{
											OFFSET 6.496506 -3.750763 3.750761
											CHANNELS 3 Xrotation Yrotation Zrotation
											JOINT LeftHandThumb4
											{
												OFFSET 5.616882 -3.242905 3.242910
												CHANNELS 3 Xrotation Yrotation Zrotation
												End Site
												{
													OFFSET -1.254608 7.132141 0.375429
												}
											}
										}
									}
								}
								JOINT LeftHandPinky1
								{
									OFFSET 18.920792 -0.453171 -11.426712
									CHANNELS 3 Xrotation Yrotation Zrotation
									JOINT LeftHandPinky2
									{
										OFFSET 4.919586 0.000000 0.000000
										CHANNELS 3 Xrotation Yrotation Zrotation
										JOINT LeftHandPinky3
										{
											OFFSET 5.233047 0.000000 0.000000
											CHANNELS 3 Xrotation Yrotation Zrotation
											JOINT LeftHandPinky4
											{
												OFFSET 5.571716 0.000000 0.000000
												CHANNELS 3 Xrotation Yrotation Zrotation
												End Site
												{
													OFFSET -3.459808 4.342407 -0.466164
												}
											}
										}
									}
								}
								JOINT LeftHandRing1
								{
									OFFSET 22.726120 -0.094986 -6.500475
									CHANNELS 3 Xrotation Yrotation Zrotation
									JOINT LeftHandRing2
									{
										OFFSET 6.408615 0.000000 0.000000
										CHANNELS 3 Xrotation Yrotation Zrotation
										JOINT LeftHandRing3
										{
											OFFSET 6.150223 0.000000 0.000000
											CHANNELS 3 Xrotation Yrotation Zrotation
											JOINT LeftHandRing4
											{
												OFFSET 6.145386 0.000000 0.000000
												CHANNELS 3 Xrotation Yrotation Zrotation
												End Site
												{
													OFFSET -3.671402 4.923981 -0.202372
												}
											}
										}
									}
								}
								JOINT LeftHandMiddle1
								{
									OFFSET 23.373947 0.000000 0.000001
									CHANNELS 3 Xrotation Yrotation Zrotation
									JOINT LeftHandMiddle2
									{
										OFFSET 6.996567 0.000000 0.000000
										CHANNELS 3 Xrotation Yrotation Zrotation
										JOINT LeftHandMiddle3
										{
											OFFSET 7.015945 0.000000 0.000000
											CHANNELS 3 Xrotation Yrotation Zrotation
											JOINT LeftHandMiddle4
											{
												OFFSET 7.721573 0.000000 0.000000
												CHANNELS 3 Xrotation Yrotation Zrotation
												End Site
												{
													OFFSET -4.651108 6.158463 0.251582
												}
											}
										}
									}
								}
								JOINT LeftHandIndex1
								{
									OFFSET 21.310577 -0.490082 6.209344
									CHANNELS 3 Xrotation Yrotation Zrotation
									JOINT LeftHandIndex2
									{
										OFFSET 7.536453 0.000000 0.000000
										CHANNELS 3 Xrotation Yrotation Zrotation
										JOINT LeftHandIndex3
										{
											OFFSET 7.512344 0.000000 0.000000
											CHANNELS 3 Xrotation Yrotation Zrotation
											JOINT LeftHandIndex4
											{
												OFFSET 10.212402 0.000000 0.000001
												CHANNELS 3 Xrotation Yrotation Zrotation
												End Site
												{
													OFFSET -5.180801 8.690506 1.388433
												}
											}
										}
									}
								}
							}
						}
					}
				}
				JOINT RightShoulder
				{
					OFFSET -17.399500 24.608795 1.168800
					CHANNELS 3 Xrotation Yrotation Zrotation
					JOINT RightArm
					{
						OFFSET -18.980635 5.765305 1.818600
						CHANNELS 3 Xrotation Yrotation Zrotation
						JOINT RightForeArm
						{
							OFFSET -49.290169 0.000000 0.000000
							CHANNELS 3 Xrotation Yrotation Zrotation
							JOINT RightHand
							{
								OFFSET -31.562012 0.000000 0.000000
								CHANNELS 3 Xrotation Yrotation Zrotation
								JOINT RightHandThumb1
								{
									OFFSET -6.133995 -4.388519 7.076070
									CHANNELS 3 Xrotation Yrotation Zrotation
									JOINT RightHandThumb2
									{
										OFFSET -6.037666 -3.485840 3.485847
										CHANNELS 3 Xrotation Yrotation Zrotation
										JOINT RightHandThumb3
										{
											OFFSET -6.496506 -3.750763 3.750761
											CHANNELS 3 Xrotation Yrotation Zrotation
											JOINT RightHandThumb4
											{
												OFFSET -5.616882 -3.242905 3.242910
												CHANNELS 3 Xrotation Yrotation Zrotation
												End Site
												{
													OFFSET 1.254608 7.132141 0.375429
												}
											}
										}
									}
								}
								JOINT RightHandIndex1
								{
									OFFSET -21.310577 -0.490082 6.209344
									CHANNELS 3 Xrotation Yrotation Zrotation
									JOINT RightHandIndex2
									{
										OFFSET -7.536453 0.000000 0.000000
										CHANNELS 3 Xrotation Yrotation Zrotation
										JOINT RightHandIndex3
										{
											OFFSET -7.512344 0.000000 0.000000
											CHANNELS 3 Xrotation Yrotation Zrotation
											JOINT RightHandIndex4
											{
												OFFSET -10.212402 0.000000 0.000001
												CHANNELS 3 Xrotation Yrotation Zrotation
												End Site
												{
													OFFSET 5.180801 8.690506 1.388433
												}
											}
										}
									}
								}
								JOINT RightHandMiddle1
								{
									OFFSET -23.373947 0.000000 0.000001
									CHANNELS 3 Xrotation Yrotation Zrotation
									JOINT RightHandMiddle2
									{
										OFFSET -6.996567 0.000000 0.000000
										CHANNELS 3 Xrotation Yrotation Zrotation
										JOINT RightHandMiddle3
										{
											OFFSET -7.015945 0.000000 0.000000
											CHANNELS 3 Xrotation Yrotation Zrotation
											JOINT RightHandMiddle4
											{
												OFFSET -7.721573 0.000000 0.000000
												CHANNELS 3 Xrotation Yrotation Zrotation
												End Site
												{
													OFFSET 4.651108 6.158463 0.251582
												}
											}
										}
									}
								}
								JOINT RightHandRing1
								{
									OFFSET -22.726120 -0.094986 -6.500475
									CHANNELS 3 Xrotation Yrotation Zrotation
									JOINT RightHandRing2
									{
										OFFSET -6.408615 0.000000 0.000000
										CHANNELS 3 Xrotation Yrotation Zrotation
										JOINT RightHandRing3
										{
											OFFSET -6.150223 0.000000 0.000000
											CHANNELS 3 Xrotation Yrotation Zrotation
											JOINT RightHandRing4
											{
												OFFSET -6.145386 0.000000 0.000000
												CHANNELS 3 Xrotation Yrotation Zrotation
												End Site
												{
													OFFSET 3.671402 4.923981 -0.202372
												}
											}
										}
									}
								}
								JOINT RightHandPinky1
								{
									OFFSET -18.920792 -0.453171 -11.426712
									CHANNELS 3 Xrotation Yrotation Zrotation
									JOINT RightHandPinky2
									{
										OFFSET -4.919586 0.000000 0.000000
										CHANNELS 3 Xrotation Yrotation Zrotation
										JOINT RightHandPinky3
										{
											OFFSET -5.233047 0.000000 0.000000
											CHANNELS 3 Xrotation Yrotation Zrotation
											JOINT RightHandPinky4
											{
												OFFSET -5.571716 0.000000 0.000000
												CHANNELS 3 Xrotation Yrotation Zrotation
												End Site
												{
													OFFSET 3.459808 4.342407 -0.466164
												}
											}
										}
									}
								}
							}
						}
					}
				}
			}
		}
	}
	JOINT LeftUpLeg
	{
		OFFSET 19.899099 -7.885101 -3.429500
		CHANNELS 3 Xrotation Yrotation Zrotation
		JOINT LeftLeg
		{
			OFFSET 1.745560 -36.997807 10.304700
			CHANNELS 3 Xrotation Yrotation Zrotation
			JOINT LeftFoot
			{
				OFFSET -1.745558 -29.803308 -13.615400
				CHANNELS 3 Xrotation Yrotation Zrotation
				JOINT LeftToeBase
				{
					OFFSET 1.181900 -18.539904 15.226099
					CHANNELS 3 Xrotation Yrotation Zrotation
					JOINT LeftToe_End
					{
						OFFSET -0.863701 1.402801 16.534700
						CHANNELS 3 Xrotation Yrotation Zrotation
						End Site
						{
							OFFSET 0.000000 16.616566 0.000000
						}
					}
				}
			}
		}
	}
	JOINT RightUpLeg
	{
		OFFSET -19.899099 -7.885101 -3.429500
		CHANNELS 3 Xrotation Yrotation Zrotation
		JOINT RightLeg
		{
			OFFSET -1.745560 -36.997807 10.304700
			CHANNELS 3 Xrotation Yrotation Zrotation
			JOINT RightFoot
			{
				OFFSET 1.745558 -29.803308 -13.615400
				CHANNELS 3 Xrotation Yrotation Zrotation
				JOINT RightToeBase
				{
					OFFSET -1.181900 -18.539904 15.226099
					CHANNELS 3 Xrotation Yrotation Zrotation
					JOINT RightToe_End
					{
						OFFSET 0.863701 1.402801 16.534700
						CHANNELS 3 Xrotation Yrotation Zrotation
						End Site
						{
							OFFSET 0.000000 16.616566 0.000000
						}
					}
				}
			}
		}
	}
}
MOTION
Frames: 4
Frame Time: 0.033333
2.188894 85.501167 4.506035 -0.394070 -19.048023 1.193702 6.931019 -1.385388 -0.209741 1.593808 -0.593406 0.370472 2.242617 14.449883 -2.333637 -1.032130 0.437866 -0.185961 -10.753146 5.927163 -2.027639 0.000000 -0.000000 -0.000000 1.720855 -2.400987 -8.465085 11.308147 -48.179482 -46.519090 -0.000002 -76.610626 -0.000012 -0.909536 -17.868958 14.497884 -0.656664 5.927385 0.244277 7.368580 23.017816 2.262470 -3.184248 9.103715 18.544908 0.000002 0.000001 -0.000001 2.246882 6.912917 -51.104510 3.282533 5.258897 -63.921534 4.448453 5.681031 -76.106844 -0.000005 0.000000 -0.000006 1.918338 6.629058 -46.844596 4.877215 5.769716 -80.402801 1.335841 3.725102 -39.444824 -0.000003 -0.000001 0.000003 1.255244 5.896945 -37.147661 3.767485 5.468707 -69.105750 1.021077 3.306368 -34.315349 0.000001 0.000001 0.000006 0.950976 5.456761 -31.902308 2.395536 4.724518 -53.753988 0.730305 2.834481 -28.891406 -0.000000 0.000001 -0.000001 2.312042 0.023310 9.644055 22.636338 9.284132 56.941679 0.000100 83.120465 -0.000139 -8.737253 23.550637 -12.342951 -1.030951 -9.031896 -8.278497 6.858933 -18.608459 -2.454044 -3.672273 -9.943167 -16.955547 -0.000001 -0.000004 0.000002 0.220360 -3.537399 15.611786 0.834112 -2.661550 34.795381 0.279171 -1.589692 19.918452 -0.000001 -0.000003 0.000003 0.374223 -3.994219 21.540492 2.092726 -3.888817 56.559666 0.575039 -2.243669 28.747498 -0.000000 0.000002 -0.000006 0.624720 -4.526079 28.776813 2.991730 -4.349782 69.025502 0.833632 -2.660855 34.785020 -0.000000 0.000001 -0.000001 0.914044 -4.985364 35.461833 2.010146 -3.833128 55.333412 2.682239 -4.218520 64.884311 -0.000003 -0.000001 0.000004 -38.251327 -7.158373 9.810335 60.405503 -7.350733 -9.051420 9.543367 13.938737 3.348826 -4.090845 0.487088 -8.025453 -0.000000 -0.000001 0.000001 -4.888236 -15.611968 -0.254961 42.373572 1.099385 2.319461 -20.839215 -9.502287 -2.067079 -18.868906 0.000002 -0.000000 -0.000000 0.000004 0.000000 
8.677485 81.981354 -1.540318 -0.336973 -20.010714 0.927137 7.819566 -2.446343 1.148227 1.415398 -1.174457 0.117488 2.108968 13.846327 -2.579570 -1.136190 0.607908 -0.196713 -12.212085 8.166407 -1.646975 0.000000 0.000000 -0.000000 1.567223 -3.348792 -9.802241 5.760635 -50.957255 -43.981743 -0.000042 -75.929130 -0.000066 0.530544 -17.327398 12.828003 -0.656680 5.927395 0.244297 7.368579 23.017838 2.262467 -3.184260 9.103695 18.544896 -0.000003 0.000001 -0.000002 2.246891 6.912919 -51.104507 3.282526 5.258899 -63.921534 4.448438 5.681029 -76.106838 -0.000002 0.000000 -0.000006 1.918319 6.629073 -46.844593 4.877219 5.769722 -80.402808 1.335845 3.725099 -39.444824 -0.000002 0.000001 0.000005 1.255252 5.896927 -37.147640 3.767486 5.468704 -69.105764 1.021060 3.306352 -34.315376 -0.000002 0.000000 0.000004 0.950971 5.456769 -31.902314 2.395512 4.724524 -53.753971 0.730330 2.834504 -28.891403 -0.000001 0.000001 -0.000001 2.213727 0.422627 10.715482 21.176585 3.395834 54.675637 0.000141 75.908346 -0.000123 -6.746491 24.389197 -11.402461 -1.030944 -9.031900 -8.278507 6.858928 -18.608453 -2.454053 -3.672273 -9.943150 -16.955555 0.000003 -0.000002 0.000002 0.220372 -3.537407 15.611770 0.834103 -2.661556 34.795378 0.279137 -1.589714 19.918454 -0.000002 -0.000003 0.000003 0.374223 -3.994229 21.540484 2.092719 -3.888807 56.559673 0.575045 -2.243663 28.747501 0.000001 -0.000002 -0.000004 0.624711 -4.526067 28.776799 2.991727 -4.349803 69.025509 0.833623 -2.660860 34.785016 -0.000002 0.000001 -0.000003 0.914045 -4.985373 35.461840 2.010157 -3.833122 55.333408 2.682228 -4.218523 64.884318 -0.000000 0.000004 0.000001 -35.725830 -5.478488 15.883569 65.845325 -8.378952 -9.525215 8.088757 9.995672 4.556128 -9.656340 2.634541 -16.894471 0.000001 -0.000000 0.000000 -19.750009 -12.993818 -5.821821 55.089430 0.533166 2.849317 -17.967987 -9.581875 0.539546 -18.687012 0.000139 -0.103489 0.000000 0.000001 -0.000000 
14.845466 79.533310 -7.207069 -0.298785 -20.682364 0.863445 8.733146 -3.535666 2.409739 1.181398 -1.759758 -0.007870 1.894760 13.252846 -2.690416 -1.168084 0.759578 -0.246438 -13.767508 10.074883 -1.339889 0.000000 0.000000 -0.000000 1.473472 -3.210681 -8.586403 -5.313477 -51.911985 -50.858996 -0.000013 -72.193733 -0.000007 -0.123153 -16.487342 9.727543 -0.656663 5.927400 0.244294 7.368551 23.017821 2.262470 -3.184242 9.103692 18.544906 -0.000001 -0.000001 -0.000002 2.246897 6.912920 -51.104507 3.282512 5.258896 -63.921514 4.448457 5.681034 -76.106858 -0.000000 -0.000002 -0.000001 1.918338 6.629071 -46.844603 4.877230 5.769705 -80.402842 1.335828 3.725105 -39.444803 -0.000002 0.000001 0.000003 1.255267 5.896937 -37.147654 3.767487 5.468711 -69.105750 1.021078 3.306354 -34.315372 -0.000003 0.000001 0.000001 0.950979 5.456773 -31.902311 2.395508 4.724509 -53.753961 0.730311 2.834510 -28.891410 -0.000003 0.000004 -0.000001 2.141427 0.111224 10.125787 19.723862 -1.657791 54.329544 0.000015 67.569067 -0.000002 -6.190241 24.801865 -10.140920 -1.030965 -9.031890 -8.278487 6.858928 -18.608444 -2.454054 -3.672260 -9.943171 -16.955569 0.000000 -0.000001 -0.000001 0.220355 -3.537387 15.611796 0.834096 -2.661560 34.795354 0.279158 -1.589713 19.918452 -0.000002 -0.000003 -0.000001 0.374216 -3.994225 21.540485 2.092716 -3.888804 56.559700 0.575055 -2.243663 28.747505 0.000003 0.000002 -0.000004 0.624689 -4.526065 28.776827 2.991731 -4.349810 69.025489 0.833622 -2.660860 34.785016 0.000004 -0.000003 -0.000005 0.914040 -4.985360 35.461840 2.010148 -3.833140 55.333398 2.682239 -4.218523 64.884318 0.000003 -0.000001 0.000007 -30.301414 -3.185725 20.192814 66.899333 -9.652256 -8.675327 8.977694 12.401531 2.088682 -18.369411 6.381007 -21.047395 -0.000003 0.000000 0.000000 -32.569231 -11.014770 -12.196539 61.112353 1.009573 4.629790 -10.612708 -7.827006 1.571957 -19.328826 0.000004 0.000000 -0.000000 0.000000 0.000000 
20.632343 79.559135 -13.010414 -0.743965 -21.704620 0.310940 9.360726 -4.377299 3.287354 0.735005 -2.152598 0.319141 1.433064 12.922360 -2.355555 -0.909994 0.898774 -0.264984 -13.792051 11.929365 -1.152493 0.000000 0.000000 0.000000 1.408149 -2.484764 -7.574049 -15.806294 -50.007677 -60.861364 0.000037 -66.637354 0.000007 -2.733992 -17.009726 6.986014 -0.656691 5.927376 0.244280 7.368567 23.017862 2.262466 -3.184251 9.103688 18.544899 -0.000003 0.000001 0.000000 2.246868 6.912934 -51.104517 3.282537 5.258902 -63.921541 4.448457 5.681033 -76.106844 -0.000001 -0.000002 -0.000001 1.918316 6.629076 -46.844589 4.877238 5.769711 -80.402835 1.335844 3.725093 -39.444797 -0.000001 -0.000001 0.000002 1.255253 5.896934 -37.147650 3.767476 5.468698 -69.105757 1.021071 3.306356 -34.315345 -0.000001 0.000003 0.000001 0.950957 5.456756 -31.902321 2.395503 4.724545 -53.753992 0.730327 2.834488 -28.891400 -0.000005 0.000003 0.000002 2.102266 -0.485434 9.980795 20.665248 -7.796432 54.274292 0.000049 63.181791 -0.000043 -4.970044 24.879468 -9.125696 -1.030949 -9.031897 -8.278503 6.858934 -18.608447 -2.454030 -3.672269 -9.943162 -16.955574 -0.000001 -0.000001 -0.000004 0.220369 -3.537398 15.611780 0.834092 -2.661551 34.795381 0.279156 -1.589693 19.918452 -0.000000 -0.000001 -0.000001 0.374222 -3.994228 21.540479 2.092727 -3.888818 56.559676 0.575045 -2.243663 28.747491 -0.000001 0.000001 -0.000006 0.624698 -4.526053 28.776827 2.991728 -4.349801 69.025475 0.833616 -2.660863 34.785033 -0.000003 0.000001 -0.000001 0.914051 -4.985367 35.461833 2.010152 -3.833120 55.333408 2.682224 -4.218525 64.884318 -0.000001 0.000001 -0.000001 -21.244175 0.627981 23.807994 62.314090 -10.804209 -9.022355 8.635797 18.338231 -0.091237 -19.239215 9.600392 -27.057127 -0.000001 0.000002 -0.000001 -41.260097 -8.894330 -15.378238 58.545124 -0.306836 5.030293 2.045699 -6.148905 2.545111 -19.643877 0.000291 -0.081096 0.000000 0.000001 0.000000 
